<svg xmlns="http://www.w3.org/2000/svg" viewBox="0 9.470000267028809 143.3300018310547 45.72999954223633" data-asc="0.9052734375" width="143.3300018310547" height="45.72999954223633"><defs/><g><g fill="#000000"><g transform="translate(0, 0)"><path d="M17.09 45.26L17.09 41.46Q14.06 45.85 8.86 45.85Q6.57 45.85 4.58 44.97Q2.59 44.09 1.62 42.76Q0.66 41.43 0.27 39.50Q0 38.21 0 35.40L0 19.34L4.39 19.34L4.39 33.72Q4.39 37.16 4.66 38.35Q5.08 40.09 6.42 41.08Q7.76 42.07 9.74 42.07Q11.72 42.07 13.45 41.05Q15.19 40.04 15.91 38.29Q16.63 36.55 16.63 33.23L16.63 19.34L21.02 19.34L21.02 45.26L17.09 45.26ZM27.91 55.20L27.91 19.34L31.91 19.34L31.91 22.71Q33.33 20.73 35.11 19.74Q36.89 18.75 39.43 18.75Q42.75 18.75 45.29 20.46Q47.83 22.17 49.12 25.28Q50.42 28.39 50.42 32.10Q50.42 36.08 48.99 39.27Q47.56 42.46 44.84 44.15Q42.11 45.85 39.11 45.85Q36.91 45.85 35.17 44.92Q33.42 43.99 32.30 42.58L32.30 55.20L27.91 55.20M31.88 32.45Q31.88 37.45 33.91 39.84Q35.94 42.24 38.82 42.24Q41.75 42.24 43.84 39.76Q45.92 37.28 45.92 32.08Q45.92 27.12 43.88 24.66Q41.85 22.19 39.01 22.19Q36.21 22.19 34.05 24.82Q31.88 27.44 31.88 32.45ZM55.62 45.26L55.62 9.47L60.01 9.47L60.01 45.26L55.62 45.26ZM65.19 32.30Q65.19 25.10 69.19 21.63Q72.53 18.75 77.34 18.75Q82.69 18.75 86.08 22.25Q89.48 25.76 89.48 31.93Q89.48 36.94 87.98 39.81Q86.47 42.68 83.61 44.26Q80.74 45.85 77.34 45.85Q71.90 45.85 68.54 42.36Q65.19 38.87 65.19 32.30M69.70 32.30Q69.70 37.28 71.88 39.76Q74.05 42.24 77.34 42.24Q80.62 42.24 82.79 39.75Q84.96 37.26 84.96 32.15Q84.96 27.34 82.78 24.87Q80.59 22.39 77.34 22.39Q74.05 22.39 71.88 24.85Q69.70 27.32 69.70 32.30ZM111.55 42.07Q109.11 44.14 106.85 45.00Q104.59 45.85 102.00 45.85Q97.73 45.85 95.43 43.76Q93.14 41.67 93.14 38.43Q93.14 36.52 94.01 34.95Q94.87 33.37 96.28 32.42Q97.68 31.47 99.44 30.98Q100.73 30.64 103.34 30.32Q108.67 29.69 111.18 28.81Q111.21 27.91 111.21 27.66Q111.21 24.98 109.96 23.88Q108.28 22.39 104.96 22.39Q101.86 22.39 100.38 23.47Q98.90 24.56 98.19 27.32L93.90 26.73Q94.48 23.97 95.83 22.28Q97.17 20.58 99.71 19.67Q102.25 18.75 105.59 18.75Q108.91 18.75 110.99 19.53Q113.06 20.31 114.04 21.50Q115.01 22.68 115.41 24.49Q115.63 25.61 115.63 28.54L115.63 34.40Q115.63 40.53 115.91 42.15Q116.19 43.77 117.02 45.26L112.43 45.26Q111.74 43.90 111.55 42.07M111.18 32.25Q108.79 33.23 104.00 33.91Q101.29 34.30 100.17 34.79Q99.05 35.28 98.44 36.22Q97.83 37.16 97.83 38.31Q97.83 40.06 99.16 41.24Q100.49 42.41 103.05 42.41Q105.59 42.41 107.57 41.30Q109.55 40.19 110.47 38.26Q111.18 36.77 111.18 33.86L111.18 32.25ZM139.26 45.26L139.26 41.99Q136.79 45.85 132.01 45.85Q128.91 45.85 126.31 44.14Q123.71 42.43 122.28 39.37Q120.85 36.30 120.85 32.32Q120.85 28.44 122.14 25.28Q123.44 22.12 126.03 20.43Q128.61 18.75 131.81 18.75Q134.16 18.75 135.99 19.74Q137.82 20.73 138.96 22.31L138.96 9.47L143.33 9.47L143.33 45.26L139.26 45.26M125.37 32.32Q125.37 37.30 127.47 39.77Q129.57 42.24 132.42 42.24Q135.30 42.24 137.32 39.88Q139.33 37.52 139.33 32.69Q139.33 27.37 137.28 24.88Q135.23 22.39 132.23 22.39Q129.30 22.39 127.33 24.78Q125.37 27.17 125.37 32.32Z"/></g></g></g></svg>